<mxfile host="app.diagrams.net" modified="2024-01-24T02:22:47.389Z" agent="Mozilla/5.0 (Windows NT 10.0; Win64; x64) AppleWebKit/537.36 (KHTML, like Gecko) Chrome/120.0.0.0 Safari/537.36 Edg/120.0.0.0" etag="lu2YIA7-hpVfC9M7Jn6N" version="23.0.0" type="github">
  <diagram name="Страница — 1" id="ob9xqJdMa8xaFmWjb784">
    <mxGraphModel dx="2000" dy="1305" grid="1" gridSize="10" guides="1" tooltips="1" connect="1" arrows="1" fold="1" page="1" pageScale="1" pageWidth="827" pageHeight="1169" math="0" shadow="0">
      <root>
        <mxCell id="0" />
        <mxCell id="1" parent="0" />
        <mxCell id="VwZjuUsohA4bCE1z0ctK-9" style="edgeStyle=orthogonalEdgeStyle;rounded=0;orthogonalLoop=1;jettySize=auto;html=1;entryX=0;entryY=0.5;entryDx=0;entryDy=0;" edge="1" parent="1" source="VwZjuUsohA4bCE1z0ctK-1" target="VwZjuUsohA4bCE1z0ctK-8">
          <mxGeometry relative="1" as="geometry" />
        </mxCell>
        <mxCell id="VwZjuUsohA4bCE1z0ctK-10" value="Фотограф" style="edgeLabel;html=1;align=center;verticalAlign=middle;resizable=0;points=[];" vertex="1" connectable="0" parent="VwZjuUsohA4bCE1z0ctK-9">
          <mxGeometry x="-0.0165" relative="1" as="geometry">
            <mxPoint as="offset" />
          </mxGeometry>
        </mxCell>
        <mxCell id="VwZjuUsohA4bCE1z0ctK-1" value="&lt;font style=&quot;font-size: 12px;&quot;&gt;Заказчик&lt;/font&gt;" style="rounded=0;whiteSpace=wrap;html=1;" vertex="1" parent="1">
          <mxGeometry x="150" y="110" width="120" height="60" as="geometry" />
        </mxCell>
        <mxCell id="VwZjuUsohA4bCE1z0ctK-16" style="edgeStyle=orthogonalEdgeStyle;rounded=0;orthogonalLoop=1;jettySize=auto;html=1;entryX=0.5;entryY=0;entryDx=0;entryDy=0;" edge="1" parent="1" source="VwZjuUsohA4bCE1z0ctK-2" target="VwZjuUsohA4bCE1z0ctK-7">
          <mxGeometry relative="1" as="geometry" />
        </mxCell>
        <mxCell id="VwZjuUsohA4bCE1z0ctK-2" value="Ретушер" style="rounded=0;whiteSpace=wrap;html=1;" vertex="1" parent="1">
          <mxGeometry x="354" y="250" width="120" height="60" as="geometry" />
        </mxCell>
        <mxCell id="VwZjuUsohA4bCE1z0ctK-17" style="edgeStyle=orthogonalEdgeStyle;rounded=0;orthogonalLoop=1;jettySize=auto;html=1;entryX=0;entryY=0.5;entryDx=0;entryDy=0;" edge="1" parent="1" source="VwZjuUsohA4bCE1z0ctK-3" target="VwZjuUsohA4bCE1z0ctK-6">
          <mxGeometry relative="1" as="geometry" />
        </mxCell>
        <mxCell id="VwZjuUsohA4bCE1z0ctK-3" value="Менеджер по продажам" style="rounded=0;whiteSpace=wrap;html=1;" vertex="1" parent="1">
          <mxGeometry x="-60" y="400" width="120" height="60" as="geometry" />
        </mxCell>
        <mxCell id="VwZjuUsohA4bCE1z0ctK-11" style="edgeStyle=orthogonalEdgeStyle;rounded=0;orthogonalLoop=1;jettySize=auto;html=1;entryX=1;entryY=0.5;entryDx=0;entryDy=0;" edge="1" parent="1" source="VwZjuUsohA4bCE1z0ctK-4" target="VwZjuUsohA4bCE1z0ctK-8">
          <mxGeometry relative="1" as="geometry" />
        </mxCell>
        <mxCell id="VwZjuUsohA4bCE1z0ctK-4" value="Клиент" style="rounded=0;whiteSpace=wrap;html=1;" vertex="1" parent="1">
          <mxGeometry x="540" y="110" width="120" height="60" as="geometry" />
        </mxCell>
        <mxCell id="VwZjuUsohA4bCE1z0ctK-25" style="edgeStyle=orthogonalEdgeStyle;rounded=0;orthogonalLoop=1;jettySize=auto;html=1;" edge="1" parent="1" source="VwZjuUsohA4bCE1z0ctK-5" target="VwZjuUsohA4bCE1z0ctK-20">
          <mxGeometry relative="1" as="geometry" />
        </mxCell>
        <mxCell id="VwZjuUsohA4bCE1z0ctK-26" value="Материалы" style="edgeLabel;html=1;align=center;verticalAlign=middle;resizable=0;points=[];" vertex="1" connectable="0" parent="VwZjuUsohA4bCE1z0ctK-25">
          <mxGeometry x="-0.2661" y="1" relative="1" as="geometry">
            <mxPoint x="11" y="1" as="offset" />
          </mxGeometry>
        </mxCell>
        <mxCell id="VwZjuUsohA4bCE1z0ctK-5" value="Поставка материалов" style="ellipse;whiteSpace=wrap;html=1;aspect=fixed;" vertex="1" parent="1">
          <mxGeometry x="90" y="560" width="80" height="80" as="geometry" />
        </mxCell>
        <mxCell id="VwZjuUsohA4bCE1z0ctK-18" style="edgeStyle=orthogonalEdgeStyle;rounded=0;orthogonalLoop=1;jettySize=auto;html=1;entryX=0.5;entryY=1;entryDx=0;entryDy=0;" edge="1" parent="1" source="VwZjuUsohA4bCE1z0ctK-6" target="VwZjuUsohA4bCE1z0ctK-1">
          <mxGeometry relative="1" as="geometry" />
        </mxCell>
        <mxCell id="VwZjuUsohA4bCE1z0ctK-19" value="Заказы" style="edgeLabel;html=1;align=center;verticalAlign=middle;resizable=0;points=[];" vertex="1" connectable="0" parent="VwZjuUsohA4bCE1z0ctK-18">
          <mxGeometry x="-0.087" y="-3" relative="1" as="geometry">
            <mxPoint as="offset" />
          </mxGeometry>
        </mxCell>
        <mxCell id="VwZjuUsohA4bCE1z0ctK-6" value="Продажа услуг фотостудии" style="ellipse;whiteSpace=wrap;html=1;aspect=fixed;" vertex="1" parent="1">
          <mxGeometry x="170" y="390" width="80" height="80" as="geometry" />
        </mxCell>
        <mxCell id="VwZjuUsohA4bCE1z0ctK-7" value="Обработка фотографий" style="ellipse;whiteSpace=wrap;html=1;aspect=fixed;" vertex="1" parent="1">
          <mxGeometry x="374" y="350" width="80" height="80" as="geometry" />
        </mxCell>
        <mxCell id="VwZjuUsohA4bCE1z0ctK-14" style="edgeStyle=orthogonalEdgeStyle;rounded=0;orthogonalLoop=1;jettySize=auto;html=1;exitX=0.5;exitY=1;exitDx=0;exitDy=0;entryX=0.5;entryY=0;entryDx=0;entryDy=0;" edge="1" parent="1" source="VwZjuUsohA4bCE1z0ctK-8" target="VwZjuUsohA4bCE1z0ctK-2">
          <mxGeometry relative="1" as="geometry" />
        </mxCell>
        <mxCell id="VwZjuUsohA4bCE1z0ctK-15" value="Фотографии" style="edgeLabel;html=1;align=center;verticalAlign=middle;resizable=0;points=[];" vertex="1" connectable="0" parent="VwZjuUsohA4bCE1z0ctK-14">
          <mxGeometry x="-0.0143" y="4" relative="1" as="geometry">
            <mxPoint as="offset" />
          </mxGeometry>
        </mxCell>
        <mxCell id="VwZjuUsohA4bCE1z0ctK-8" value="Съемка портретов" style="ellipse;whiteSpace=wrap;html=1;aspect=fixed;" vertex="1" parent="1">
          <mxGeometry x="374" y="100" width="80" height="80" as="geometry" />
        </mxCell>
        <mxCell id="VwZjuUsohA4bCE1z0ctK-22" style="edgeStyle=orthogonalEdgeStyle;rounded=0;orthogonalLoop=1;jettySize=auto;html=1;entryX=0.5;entryY=1;entryDx=0;entryDy=0;" edge="1" parent="1" source="VwZjuUsohA4bCE1z0ctK-20" target="VwZjuUsohA4bCE1z0ctK-21">
          <mxGeometry relative="1" as="geometry" />
        </mxCell>
        <mxCell id="VwZjuUsohA4bCE1z0ctK-27" value="Управление фотостудией&lt;br&gt;" style="edgeLabel;html=1;align=center;verticalAlign=middle;resizable=0;points=[];" vertex="1" connectable="0" parent="VwZjuUsohA4bCE1z0ctK-22">
          <mxGeometry x="-0.1627" y="-4" relative="1" as="geometry">
            <mxPoint as="offset" />
          </mxGeometry>
        </mxCell>
        <mxCell id="VwZjuUsohA4bCE1z0ctK-23" style="edgeStyle=orthogonalEdgeStyle;rounded=0;orthogonalLoop=1;jettySize=auto;html=1;entryX=0.5;entryY=1;entryDx=0;entryDy=0;" edge="1" parent="1" source="VwZjuUsohA4bCE1z0ctK-20" target="VwZjuUsohA4bCE1z0ctK-28">
          <mxGeometry relative="1" as="geometry">
            <Array as="points">
              <mxPoint x="335" y="660" />
              <mxPoint x="-10" y="660" />
            </Array>
          </mxGeometry>
        </mxCell>
        <mxCell id="VwZjuUsohA4bCE1z0ctK-24" value="Заказы на поставку" style="edgeLabel;html=1;align=center;verticalAlign=middle;resizable=0;points=[];" vertex="1" connectable="0" parent="VwZjuUsohA4bCE1z0ctK-23">
          <mxGeometry x="0.4745" y="2" relative="1" as="geometry">
            <mxPoint x="43" as="offset" />
          </mxGeometry>
        </mxCell>
        <mxCell id="VwZjuUsohA4bCE1z0ctK-20" value="Администратор" style="rounded=0;whiteSpace=wrap;html=1;" vertex="1" parent="1">
          <mxGeometry x="275" y="570" width="120" height="60" as="geometry" />
        </mxCell>
        <mxCell id="VwZjuUsohA4bCE1z0ctK-21" value="Фотостудия" style="swimlane;whiteSpace=wrap;html=1;" vertex="1" parent="1">
          <mxGeometry x="-70" y="70" width="810" height="440" as="geometry" />
        </mxCell>
        <mxCell id="VwZjuUsohA4bCE1z0ctK-29" style="edgeStyle=orthogonalEdgeStyle;rounded=0;orthogonalLoop=1;jettySize=auto;html=1;entryX=0;entryY=0.5;entryDx=0;entryDy=0;" edge="1" parent="1" source="VwZjuUsohA4bCE1z0ctK-28" target="VwZjuUsohA4bCE1z0ctK-5">
          <mxGeometry relative="1" as="geometry" />
        </mxCell>
        <mxCell id="VwZjuUsohA4bCE1z0ctK-28" value="поставщик" style="rounded=0;whiteSpace=wrap;html=1;" vertex="1" parent="1">
          <mxGeometry x="-70" y="570" width="120" height="60" as="geometry" />
        </mxCell>
      </root>
    </mxGraphModel>
  </diagram>
</mxfile>
